<svg id="Logo" xmlns="http://www.w3.org/2000/svg" xmlns:xlink="http://www.w3.org/1999/xlink" width="166.008" height="61.639" viewBox="0 0 166.008 61.639">
  <defs>
    <clipPath id="clip-path">
      <rect id="Rectangle_6" data-name="Rectangle 6" width="166.008" height="61.639" fill="none"/>
    </clipPath>
  </defs>
  <path id="Path_17" data-name="Path 17" d="M59.066,0,.2,40.744H21.773l37.294-25.8,37.294,25.8h21.571L95.609,25.291Z" transform="translate(-0.154 0)" fill="#1e5ea6"/>
  <path id="Path_18" data-name="Path 18" d="M360.836,0,326.252,23.936,337.043,31.4l23.793-16.462,37.294,25.8H419.7Z" transform="translate(-254.337 0)" fill="#1e5ea6"/>
  <rect id="Rectangle_1" data-name="Rectangle 1" width="5.635" height="5.635" transform="translate(53.028 23.979)" fill="#1e5ea6"/>
  <rect id="Rectangle_2" data-name="Rectangle 2" width="5.635" height="5.635" transform="translate(60.455 23.979)" fill="#1e5ea6"/>
  <rect id="Rectangle_3" data-name="Rectangle 3" width="5.635" height="5.635" transform="translate(53.028 31.407)" fill="#1e5ea6"/>
  <rect id="Rectangle_4" data-name="Rectangle 4" width="5.635" height="5.635" transform="translate(60.455 31.407)" fill="#1e5ea6"/>
  <rect id="Rectangle_5" data-name="Rectangle 5" width="12.669" height="18.381" transform="translate(28 6.416)" fill="#1e5ea6"/>
  <g id="Group_2" data-name="Group 2">
    <g id="Group_1" data-name="Group 1" clip-path="url(#clip-path)">
      <path id="Path_19" data-name="Path 19" d="M9.241,227.21l-2.8-4.04H3.357v4.04H0v-14.5H6.278a8.06,8.06,0,0,1,3.346.642,4.974,4.974,0,0,1,2.186,1.823,5.026,5.026,0,0,1,.767,2.8,4.725,4.725,0,0,1-2.984,4.579l3.253,4.662Zm-.85-11.116a3.524,3.524,0,0,0-2.3-.653H3.357V220.5H6.092a3.486,3.486,0,0,0,2.3-.663,2.614,2.614,0,0,0,0-3.74" transform="translate(0 -165.82)" fill="#222"/>
      <path id="Path_20" data-name="Path 20" d="M91.411,224.517v2.694H80.181v-14.5H91.142V215.4H83.517v3.149h6.734v2.611H83.517v3.357Z" transform="translate(-62.507 -165.82)" fill="#222"/>
      <path id="Path_21" data-name="Path 21" d="M157.156,224.1h-6.734l-1.285,3.108H145.7l6.465-14.5h3.315l6.485,14.5h-3.522Zm-1.057-2.549L153.8,216l-2.3,5.553Z" transform="translate(-113.582 -165.82)" fill="#222"/>
      <path id="Path_22" data-name="Path 22" d="M237.441,212.706H240.8v11.769h7.273v2.735H237.441Z" transform="translate(-185.103 -165.82)" fill="#222"/>
      <path id="Path_23" data-name="Path 23" d="M354.23,224.517v2.694H343v-14.5h10.961V215.4h-7.625v3.149h6.734v2.611h-6.734v3.357Z" transform="translate(-267.394 -165.82)" fill="#222"/>
      <path id="Path_24" data-name="Path 24" d="M414.575,226.114a7.8,7.8,0,0,1-2.58-1.212l1.14-2.528a7.724,7.724,0,0,0,2.217,1.1,8.322,8.322,0,0,0,2.57.414,4.1,4.1,0,0,0,2.113-.425,1.283,1.283,0,0,0,.684-1.129,1.081,1.081,0,0,0-.4-.86,3.066,3.066,0,0,0-1.036-.549q-.632-.207-1.709-.456a23.531,23.531,0,0,1-2.714-.788,4.406,4.406,0,0,1-1.813-1.264,3.411,3.411,0,0,1-.757-2.32,4.04,4.04,0,0,1,.684-2.29,4.6,4.6,0,0,1,2.062-1.627,8.42,8.42,0,0,1,3.367-.6,11.17,11.17,0,0,1,2.714.331,8.016,8.016,0,0,1,2.321.953l-1.036,2.548a8.092,8.092,0,0,0-4.02-1.14,3.768,3.768,0,0,0-2.082.456,1.391,1.391,0,0,0-.673,1.2,1.174,1.174,0,0,0,.777,1.109,12.153,12.153,0,0,0,2.372.715,23.709,23.709,0,0,1,2.715.788,4.5,4.5,0,0,1,1.813,1.243,3.335,3.335,0,0,1,.757,2.3,3.963,3.963,0,0,1-.694,2.269,4.67,4.67,0,0,1-2.082,1.627,8.495,8.495,0,0,1-3.377.6,11.865,11.865,0,0,1-3.326-.466" transform="translate(-321.18 -164.941)" fill="#222"/>
      <path id="Path_25" data-name="Path 25" d="M484.5,215.442h-4.642v-2.735H492.5v2.735H487.86v11.769H484.5Z" transform="translate(-374.088 -165.82)" fill="#222"/>
      <path id="Path_26" data-name="Path 26" d="M555.994,224.1H549.26l-1.285,3.108h-3.44l6.465-14.5h3.315l6.485,14.5h-3.523Zm-1.057-2.549-2.3-5.553-2.3,5.553Z" transform="translate(-424.506 -165.82)" fill="#222"/>
      <path id="Path_27" data-name="Path 27" d="M630.2,215.442h-4.641v-2.735H638.2v2.735h-4.641v11.769H630.2Z" transform="translate(-487.673 -165.82)" fill="#222"/>
      <path id="Path_28" data-name="Path 28" d="M713.4,224.517v2.694H702.173v-14.5h10.961V215.4h-7.625v3.149h6.734v2.611h-6.734v3.357Z" transform="translate(-547.396 -165.82)" fill="#222"/>
    </g>
  </g>
</svg>
